<svg width="166" height="28" viewBox="0 0 166 28" fill="none" xmlns="http://www.w3.org/2000/svg">
<path d="M26.92 0.584C27.656 0.391999 28.256 0.295999 28.72 0.295999C29.184 0.295999 29.552 0.311999 29.824 0.343998V0.584C27.728 0.695999 26.048 1.656 24.784 3.464C24.128 4.392 23.6 5.472 23.2 6.704L18.688 20.768C18.416 21.648 18.28 22.464 18.28 23.216C18.28 23.296 18.28 23.368 18.28 23.432H18.04L12.832 11.864L8.56 22.016C8.128 23.072 7.496 24.096 6.664 25.088C5.768 26.144 4.68 26.84 3.4 27.176C3.096 27.272 2.776 27.32 2.44 27.32C2.104 27.32 1.744 27.264 1.36 27.152L1.384 26.912C1.976 26.88 2.544 26.72 3.088 26.432C3.648 26.144 4.136 25.792 4.552 25.376C4.968 24.976 5.368 24.504 5.752 23.96C6.376 23.08 6.904 22.12 7.336 21.08L2.464 7.832C2.256 7.368 1.96 7.024 1.576 6.8C1.192 6.56 0.8 6.44 0.4 6.44H0.208V6.2H7.528V6.44H7.312C6.976 6.44 6.72 6.552 6.544 6.776C6.384 6.984 6.304 7.184 6.304 7.376C6.304 7.568 6.336 7.752 6.4 7.928L9.352 16.256L13.696 5.816L13.912 5.84L18.688 16.376L21.448 6.704C21.848 5.312 22.48 4.08 23.344 3.008C24.352 1.744 25.544 0.935999 26.92 0.584ZM33.3511 8.288C34.6311 8.288 35.7911 8.464 36.8311 8.816C37.8711 9.152 38.7671 9.648 39.5191 10.304C40.2711 10.96 40.8471 11.752 41.2471 12.68C41.6631 13.608 41.8711 14.656 41.8711 15.824C41.8711 16.976 41.6631 18.016 41.2471 18.944C40.8471 19.856 40.2711 20.64 39.5191 21.296C38.7671 21.952 37.8711 22.456 36.8311 22.808C35.7911 23.144 34.6311 23.312 33.3511 23.312C32.0871 23.312 30.9351 23.144 29.8951 22.808C28.8551 22.456 27.9591 21.952 27.2071 21.296C26.4551 20.64 25.8791 19.856 25.4791 18.944C25.0791 18.016 24.8791 16.976 24.8791 15.824C24.8791 14.656 25.0791 13.608 25.4791 12.68C25.8791 11.752 26.4551 10.96 27.2071 10.304C27.9591 9.648 28.8551 9.152 29.8951 8.816C30.9351 8.464 32.0871 8.288 33.3511 8.288ZM33.3511 22.376C34.3271 22.376 35.1751 22.112 35.8951 21.584C36.6311 21.04 37.1911 20.28 37.5751 19.304C37.9751 18.328 38.1751 17.168 38.1751 15.824C38.1751 14.464 37.9751 13.296 37.5751 12.32C37.1911 11.328 36.6311 10.568 35.8951 10.04C35.1751 9.496 34.3271 9.224 33.3511 9.224C32.3911 9.224 31.5511 9.496 30.8311 10.04C30.1111 10.568 29.5511 11.328 29.1511 12.32C28.7511 13.296 28.5511 14.464 28.5511 15.824C28.5511 17.168 28.7511 18.328 29.1511 19.304C29.5511 20.28 30.1111 21.04 30.8311 21.584C31.5511 22.112 32.3911 22.376 33.3511 22.376ZM52.2886 8.288C53.5686 8.288 54.7286 8.464 55.7686 8.816C56.8086 9.152 57.7046 9.648 58.4566 10.304C59.2086 10.96 59.7846 11.752 60.1846 12.68C60.6006 13.608 60.8086 14.656 60.8086 15.824C60.8086 16.976 60.6006 18.016 60.1846 18.944C59.7846 19.856 59.2086 20.64 58.4566 21.296C57.7046 21.952 56.8086 22.456 55.7686 22.808C54.7286 23.144 53.5686 23.312 52.2886 23.312C51.0246 23.312 49.8726 23.144 48.8326 22.808C47.7926 22.456 46.8966 21.952 46.1446 21.296C45.3926 20.64 44.8166 19.856 44.4166 18.944C44.0166 18.016 43.8166 16.976 43.8166 15.824C43.8166 14.656 44.0166 13.608 44.4166 12.68C44.8166 11.752 45.3926 10.96 46.1446 10.304C46.8966 9.648 47.7926 9.152 48.8326 8.816C49.8726 8.464 51.0246 8.288 52.2886 8.288ZM52.2886 22.376C53.2646 22.376 54.1126 22.112 54.8326 21.584C55.5686 21.04 56.1286 20.28 56.5126 19.304C56.9126 18.328 57.1126 17.168 57.1126 15.824C57.1126 14.464 56.9126 13.296 56.5126 12.32C56.1286 11.328 55.5686 10.568 54.8326 10.04C54.1126 9.496 53.2646 9.224 52.2886 9.224C51.3286 9.224 50.4886 9.496 49.7686 10.04C49.0486 10.568 48.4886 11.328 48.0886 12.32C47.6886 13.296 47.4886 14.464 47.4886 15.824C47.4886 17.168 47.6886 18.328 48.0886 19.304C48.4886 20.28 49.0486 21.04 49.7686 21.584C50.4886 22.112 51.3286 22.376 52.2886 22.376ZM70.2556 8.6C71.9676 8.6 73.4396 8.888 74.6716 9.464C75.9036 10.024 76.8476 10.848 77.5036 11.936C78.1596 13.008 78.4876 14.296 78.4876 15.8C78.4876 17.304 78.1596 18.592 77.5036 19.664C76.8476 20.736 75.9036 21.56 74.6716 22.136C73.4396 22.712 71.9676 23 70.2556 23H64.9276L64.8796 22.04C66.0956 22.04 67.0716 22.04 67.8076 22.04C68.5596 22.04 69.1036 22.04 69.4396 22.04C69.7916 22.04 69.9676 22.04 69.9676 22.04C71.4716 22.04 72.6556 21.488 73.5196 20.384C74.3836 19.28 74.8156 17.752 74.8156 15.8C74.8156 13.848 74.3836 12.32 73.5196 11.216C72.6556 10.096 71.4716 9.536 69.9676 9.536C69.9676 9.536 69.7916 9.536 69.4396 9.536C69.0876 9.536 68.5196 9.536 67.7356 9.536C66.9516 9.536 65.9196 9.536 64.6396 9.536V8.6H70.2556ZM67.2556 8.6V23H63.7996V8.6H67.2556ZM63.8716 21.464V23H62.1436V22.76C62.1436 22.76 62.1916 22.76 62.2876 22.76C62.3836 22.76 62.4396 22.76 62.4556 22.76C62.8236 22.76 63.1356 22.632 63.3916 22.376C63.6636 22.12 63.7996 21.816 63.7996 21.464H63.8716ZM63.8476 10.112H63.7996C63.7836 9.744 63.6396 9.44 63.3676 9.2C63.1116 8.96 62.7996 8.84 62.4316 8.84C62.4316 8.84 62.3836 8.84 62.2876 8.84C62.1916 8.84 62.1436 8.84 62.1436 8.84V8.6H63.8476V10.112ZM85.087 8.288C85.407 8.288 85.791 8.304 86.239 8.336C86.703 8.368 87.159 8.408 87.607 8.456C88.055 8.488 88.447 8.536 88.783 8.6C89.135 8.648 89.375 8.696 89.503 8.744L89.191 11.672H88.975C88.975 10.936 88.719 10.352 88.207 9.92C87.695 9.488 86.959 9.272 85.999 9.272C85.231 9.272 84.607 9.44 84.127 9.776C83.663 10.112 83.415 10.56 83.383 11.12C83.351 11.408 83.399 11.672 83.527 11.912C83.671 12.136 83.863 12.336 84.103 12.512C84.359 12.688 84.639 12.864 84.943 13.04L88.711 15.368C89.351 15.688 89.855 16.152 90.223 16.76C90.591 17.368 90.751 18.104 90.703 18.968C90.655 19.864 90.391 20.64 89.911 21.296C89.447 21.952 88.799 22.456 87.967 22.808C87.151 23.144 86.183 23.312 85.063 23.312C84.375 23.312 83.735 23.256 83.143 23.144C82.551 23.032 82.039 22.88 81.607 22.688C81.191 22.496 80.871 22.28 80.647 22.04C80.519 21.72 80.463 21.336 80.479 20.888C80.495 20.424 80.567 19.968 80.695 19.52C80.823 19.056 80.983 18.672 81.175 18.368H81.367C81.319 19.088 81.447 19.752 81.751 20.36C82.071 20.968 82.535 21.456 83.143 21.824C83.751 22.176 84.479 22.352 85.327 22.352C86.255 22.352 86.951 22.136 87.415 21.704C87.879 21.272 88.111 20.768 88.111 20.192C88.111 19.76 87.967 19.376 87.679 19.04C87.407 18.688 86.951 18.344 86.311 18.008L82.903 15.848C82.103 15.432 81.519 14.88 81.151 14.192C80.799 13.504 80.671 12.752 80.767 11.936C80.847 11.168 81.071 10.512 81.439 9.968C81.823 9.424 82.327 9.008 82.951 8.72C83.575 8.432 84.287 8.288 85.087 8.288ZM89.503 8.504L89.479 8.936H86.911V8.504H89.503ZM97.2019 8.6H99.5059C100.802 8.6 101.85 8.776 102.65 9.128C103.45 9.48 104.05 9.96 104.45 10.568C104.85 11.16 105.066 11.832 105.098 12.584C105.13 13.528 104.938 14.352 104.522 15.056C104.122 15.76 103.578 16.296 102.89 16.664C102.202 17.032 101.45 17.2 100.634 17.168C99.8179 17.12 99.0099 16.832 98.2099 16.304V16.088C98.2099 16.088 98.2899 16.088 98.4499 16.088C98.6259 16.088 98.8419 16.064 99.0979 16.016C99.3539 15.952 99.6179 15.84 99.8899 15.68C100.178 15.52 100.45 15.28 100.706 14.96C100.962 14.64 101.162 14.208 101.306 13.664C101.354 13.472 101.386 13.264 101.402 13.04C101.434 12.8 101.442 12.592 101.426 12.416C101.41 11.536 101.146 10.84 100.634 10.328C100.138 9.8 99.4419 9.536 98.5459 9.536H97.4179C97.4179 9.536 97.4019 9.464 97.3699 9.32C97.3379 9.16 97.2979 9 97.2499 8.84C97.2179 8.68 97.2019 8.6 97.2019 8.6ZM97.4659 8.6V23H94.0099V8.6H97.4659ZM94.0579 21.488L94.1539 23H92.4259V22.76C92.4419 22.76 92.4899 22.76 92.5699 22.76C92.6499 22.76 92.6979 22.76 92.7139 22.76C93.0659 22.76 93.3619 22.64 93.6019 22.4C93.8579 22.144 93.9939 21.84 94.0099 21.488H94.0579ZM94.0579 10.088H94.0099C93.9939 9.72 93.8579 9.424 93.6019 9.2C93.3619 8.96 93.0659 8.84 92.7139 8.84C92.6819 8.84 92.6259 8.84 92.5459 8.84C92.4819 8.84 92.4339 8.84 92.4019 8.84V8.6H94.1539L94.0579 10.088ZM97.4179 21.488H97.4659C97.4819 21.84 97.6099 22.144 97.8499 22.4C98.0899 22.64 98.3939 22.76 98.7619 22.76C98.7939 22.76 98.8419 22.76 98.9059 22.76C98.9859 22.76 99.0339 22.76 99.0499 22.76V23H97.2979L97.4179 21.488ZM121.272 8.6V23H117.84V8.6H121.272ZM111.504 8.6V23H108.048V8.6H111.504ZM118.032 15.344V16.304H111.288V15.344H118.032ZM108.12 21.488V23H106.464V22.76C106.464 22.76 106.504 22.76 106.584 22.76C106.68 22.76 106.736 22.76 106.752 22.76C107.104 22.76 107.408 22.64 107.664 22.4C107.92 22.144 108.048 21.84 108.048 21.488H108.12ZM111.456 21.488H111.504C111.52 21.84 111.656 22.144 111.912 22.4C112.168 22.64 112.472 22.76 112.824 22.76C112.824 22.76 112.864 22.76 112.944 22.76C113.04 22.76 113.088 22.76 113.088 22.76V23H111.456V21.488ZM111.456 10.112V8.6H113.088V8.84C113.088 8.84 113.04 8.84 112.944 8.84C112.864 8.84 112.824 8.84 112.824 8.84C112.472 8.84 112.168 8.96 111.912 9.2C111.656 9.44 111.52 9.744 111.504 10.112H111.456ZM108.12 10.112H108.048C108.048 9.744 107.92 9.44 107.664 9.2C107.408 8.96 107.104 8.84 106.752 8.84C106.736 8.84 106.68 8.84 106.584 8.84C106.504 8.84 106.464 8.84 106.464 8.84V8.6H108.12V10.112ZM117.888 21.488V23H116.256V22.76C116.256 22.76 116.296 22.76 116.376 22.76C116.472 22.76 116.52 22.76 116.52 22.76C116.872 22.76 117.176 22.64 117.432 22.4C117.688 22.144 117.816 21.84 117.816 21.488H117.888ZM121.2 21.488H121.272C121.288 21.84 121.416 22.144 121.656 22.4C121.912 22.64 122.224 22.76 122.592 22.76C122.592 22.76 122.632 22.76 122.712 22.76C122.808 22.76 122.856 22.76 122.856 22.76V23H121.2V21.488ZM121.224 10.112V8.6H122.88V8.84C122.88 8.84 122.832 8.84 122.736 8.84C122.64 8.84 122.592 8.84 122.592 8.84C122.224 8.84 121.912 8.96 121.656 9.2C121.416 9.44 121.296 9.744 121.296 10.112H121.224ZM117.888 10.112H117.816C117.816 9.744 117.688 9.44 117.432 9.2C117.176 8.96 116.872 8.84 116.52 8.84C116.52 8.84 116.472 8.84 116.376 8.84C116.296 8.84 116.256 8.84 116.256 8.84V8.6H117.888V10.112ZM129.411 8.6V23H125.955V8.6H129.411ZM135.027 22.04L135.579 23H129.363V22.04H135.027ZM134.211 15.392V16.352H129.363V15.392H134.211ZM135.291 8.6V9.56H129.363V8.6H135.291ZM136.563 18.584L135.651 23H131.499L132.243 22.04C132.931 22.04 133.539 21.904 134.067 21.632C134.611 21.344 135.075 20.944 135.459 20.432C135.843 19.904 136.139 19.288 136.347 18.584H136.563ZM134.211 16.304V18.416H133.971V18.224C133.971 17.696 133.803 17.256 133.467 16.904C133.147 16.552 132.707 16.368 132.147 16.352V16.304H134.211ZM134.211 13.328V15.44H132.147V15.392C132.707 15.376 133.147 15.192 133.467 14.84C133.803 14.472 133.971 14.024 133.971 13.496V13.328H134.211ZM135.291 9.512V12.056H135.051V11.84C135.051 11.136 134.859 10.584 134.475 10.184C134.107 9.784 133.571 9.576 132.867 9.56V9.512H135.291ZM135.291 8.24V8.816L132.771 8.6C133.235 8.6 133.723 8.56 134.235 8.48C134.747 8.384 135.099 8.304 135.291 8.24ZM126.003 21.488L126.123 23H124.347V22.76C124.347 22.76 124.395 22.76 124.491 22.76C124.587 22.76 124.643 22.76 124.659 22.76C125.011 22.76 125.307 22.64 125.547 22.4C125.803 22.144 125.939 21.84 125.955 21.488H126.003ZM126.003 10.112H125.955C125.939 9.744 125.803 9.44 125.547 9.2C125.307 8.96 125.011 8.84 124.659 8.84C124.643 8.84 124.587 8.84 124.491 8.84C124.395 8.84 124.347 8.84 124.347 8.84V8.6H126.123L126.003 10.112ZM142.768 8.6H145.36C146.016 8.6 146.656 8.672 147.28 8.816C147.904 8.944 148.464 9.16 148.96 9.464C149.456 9.752 149.848 10.152 150.136 10.664C150.44 11.16 150.592 11.784 150.592 12.536C150.592 13.096 150.472 13.656 150.232 14.216C150.008 14.76 149.648 15.232 149.152 15.632C148.672 16.032 148.04 16.296 147.256 16.424C147.72 16.568 148.16 16.848 148.576 17.264C149.008 17.68 149.344 18.072 149.584 18.44C149.648 18.568 149.76 18.776 149.92 19.064C150.08 19.336 150.28 19.656 150.52 20.024C150.776 20.376 151.04 20.744 151.312 21.128C151.632 21.56 151.912 21.896 152.152 22.136C152.392 22.36 152.64 22.52 152.896 22.616C153.152 22.712 153.448 22.76 153.784 22.76V23H151.768C150.904 23 150.168 22.936 149.56 22.808C148.968 22.68 148.448 22.448 148 22.112C147.568 21.76 147.168 21.288 146.8 20.696C146.656 20.488 146.504 20.24 146.344 19.952C146.184 19.648 146.024 19.344 145.864 19.04C145.704 18.736 145.56 18.44 145.432 18.152C145.32 17.864 145.24 17.624 145.192 17.432C144.984 16.92 144.744 16.552 144.472 16.328C144.216 16.088 143.976 15.968 143.752 15.968V15.752C143.752 15.752 143.808 15.752 143.92 15.752C144.032 15.752 144.176 15.752 144.352 15.752C144.688 15.752 145.016 15.696 145.336 15.584C145.672 15.456 145.976 15.224 146.248 14.888C146.52 14.536 146.72 14.024 146.848 13.352C146.88 13.256 146.904 13.12 146.92 12.944C146.952 12.768 146.96 12.568 146.944 12.344C146.912 11.752 146.8 11.28 146.608 10.928C146.432 10.56 146.208 10.288 145.936 10.112C145.664 9.92 145.384 9.792 145.096 9.728C144.824 9.648 144.584 9.608 144.376 9.608C144.072 9.592 143.792 9.592 143.536 9.608C143.296 9.608 143.112 9.6 142.984 9.584C142.968 9.584 142.944 9.504 142.912 9.344C142.88 9.168 142.848 9 142.816 8.84C142.784 8.68 142.768 8.6 142.768 8.6ZM143.008 8.6V23H139.528V8.6H143.008ZM139.6 21.488L139.696 23H137.968V22.76C137.984 22.76 138.024 22.76 138.088 22.76C138.168 22.76 138.224 22.76 138.256 22.76C138.608 22.76 138.904 22.64 139.144 22.4C139.4 22.144 139.536 21.84 139.552 21.488H139.6ZM139.6 10.088H139.552C139.536 9.72 139.4 9.424 139.144 9.2C138.904 8.96 138.616 8.84 138.28 8.84C138.232 8.84 138.168 8.84 138.088 8.84C138.024 8.84 137.984 8.84 137.968 8.84V8.6H139.696L139.6 10.088ZM142.96 21.488H143.008C143.008 21.888 143.144 22.2 143.416 22.424C143.704 22.648 144.008 22.76 144.328 22.76C144.328 22.76 144.36 22.76 144.424 22.76C144.488 22.76 144.536 22.76 144.568 22.76V23H142.84L142.96 21.488ZM158.661 8.6V23H155.205V8.6H158.661ZM164.277 22.04L164.829 23H158.613V22.04H164.277ZM163.461 15.392V16.352H158.613V15.392H163.461ZM164.541 8.6V9.56H158.613V8.6H164.541ZM165.813 18.584L164.901 23H160.749L161.493 22.04C162.181 22.04 162.789 21.904 163.317 21.632C163.861 21.344 164.325 20.944 164.709 20.432C165.093 19.904 165.389 19.288 165.597 18.584H165.813ZM163.461 16.304V18.416H163.221V18.224C163.221 17.696 163.053 17.256 162.717 16.904C162.397 16.552 161.957 16.368 161.397 16.352V16.304H163.461ZM163.461 13.328V15.44H161.397V15.392C161.957 15.376 162.397 15.192 162.717 14.84C163.053 14.472 163.221 14.024 163.221 13.496V13.328H163.461ZM164.541 9.512V12.056H164.301V11.84C164.301 11.136 164.109 10.584 163.725 10.184C163.357 9.784 162.821 9.576 162.117 9.56V9.512H164.541ZM164.541 8.24V8.816L162.021 8.6C162.485 8.6 162.973 8.56 163.485 8.48C163.997 8.384 164.349 8.304 164.541 8.24ZM155.253 21.488L155.373 23H153.597V22.76C153.597 22.76 153.645 22.76 153.741 22.76C153.837 22.76 153.893 22.76 153.909 22.76C154.261 22.76 154.557 22.64 154.797 22.4C155.053 22.144 155.189 21.84 155.205 21.488H155.253ZM155.253 10.112H155.205C155.189 9.744 155.053 9.44 154.797 9.2C154.557 8.96 154.261 8.84 153.909 8.84C153.893 8.84 153.837 8.84 153.741 8.84C153.645 8.84 153.597 8.84 153.597 8.84V8.6H155.373L155.253 10.112Z" fill="black"/>
</svg>
