<svg width="133" height="28" viewBox="0 0 133 28" fill="none" xmlns="http://www.w3.org/2000/svg">
<path d="M26.92 0.584C27.656 0.391999 28.256 0.295999 28.72 0.295999C29.184 0.295999 29.552 0.311999 29.824 0.343998V0.584C27.728 0.695999 26.048 1.656 24.784 3.464C24.128 4.392 23.6 5.472 23.2 6.704L18.688 20.768C18.416 21.648 18.28 22.464 18.28 23.216C18.28 23.296 18.28 23.368 18.28 23.432H18.04L12.832 11.864L8.56 22.016C8.128 23.072 7.496 24.096 6.664 25.088C5.768 26.144 4.68 26.84 3.4 27.176C3.096 27.272 2.776 27.32 2.44 27.32C2.104 27.32 1.744 27.264 1.36 27.152L1.384 26.912C1.976 26.88 2.544 26.72 3.088 26.432C3.648 26.144 4.136 25.792 4.552 25.376C4.968 24.976 5.368 24.504 5.752 23.96C6.376 23.08 6.904 22.12 7.336 21.08L2.464 7.832C2.256 7.368 1.96 7.024 1.576 6.8C1.192 6.56 0.8 6.44 0.4 6.44H0.208V6.2H7.528V6.44H7.312C6.976 6.44 6.72 6.552 6.544 6.776C6.384 6.984 6.304 7.184 6.304 7.376C6.304 7.568 6.336 7.752 6.4 7.928L9.352 16.256L13.696 5.816L13.912 5.84L18.688 16.376L21.448 6.704C21.848 5.312 22.48 4.08 23.344 3.008C24.352 1.744 25.544 0.935999 26.92 0.584ZM33.3511 8.288C34.6311 8.288 35.7911 8.464 36.8311 8.816C37.8711 9.152 38.7671 9.648 39.5191 10.304C40.2711 10.96 40.8471 11.752 41.2471 12.68C41.6631 13.608 41.8711 14.656 41.8711 15.824C41.8711 16.976 41.6631 18.016 41.2471 18.944C40.8471 19.856 40.2711 20.64 39.5191 21.296C38.7671 21.952 37.8711 22.456 36.8311 22.808C35.7911 23.144 34.6311 23.312 33.3511 23.312C32.0871 23.312 30.9351 23.144 29.8951 22.808C28.8551 22.456 27.9591 21.952 27.2071 21.296C26.4551 20.64 25.8791 19.856 25.4791 18.944C25.0791 18.016 24.8791 16.976 24.8791 15.824C24.8791 14.656 25.0791 13.608 25.4791 12.68C25.8791 11.752 26.4551 10.96 27.2071 10.304C27.9591 9.648 28.8551 9.152 29.8951 8.816C30.9351 8.464 32.0871 8.288 33.3511 8.288ZM33.3511 22.376C34.3271 22.376 35.1751 22.112 35.8951 21.584C36.6311 21.04 37.1911 20.28 37.5751 19.304C37.9751 18.328 38.1751 17.168 38.1751 15.824C38.1751 14.464 37.9751 13.296 37.5751 12.32C37.1911 11.328 36.6311 10.568 35.8951 10.04C35.1751 9.496 34.3271 9.224 33.3511 9.224C32.3911 9.224 31.5511 9.496 30.8311 10.04C30.1111 10.568 29.5511 11.328 29.1511 12.32C28.7511 13.296 28.5511 14.464 28.5511 15.824C28.5511 17.168 28.7511 18.328 29.1511 19.304C29.5511 20.28 30.1111 21.04 30.8311 21.584C31.5511 22.112 32.3911 22.376 33.3511 22.376ZM52.2886 8.288C53.5686 8.288 54.7286 8.464 55.7686 8.816C56.8086 9.152 57.7046 9.648 58.4566 10.304C59.2086 10.96 59.7846 11.752 60.1846 12.68C60.6006 13.608 60.8086 14.656 60.8086 15.824C60.8086 16.976 60.6006 18.016 60.1846 18.944C59.7846 19.856 59.2086 20.64 58.4566 21.296C57.7046 21.952 56.8086 22.456 55.7686 22.808C54.7286 23.144 53.5686 23.312 52.2886 23.312C51.0246 23.312 49.8726 23.144 48.8326 22.808C47.7926 22.456 46.8966 21.952 46.1446 21.296C45.3926 20.64 44.8166 19.856 44.4166 18.944C44.0166 18.016 43.8166 16.976 43.8166 15.824C43.8166 14.656 44.0166 13.608 44.4166 12.68C44.8166 11.752 45.3926 10.96 46.1446 10.304C46.8966 9.648 47.7926 9.152 48.8326 8.816C49.8726 8.464 51.0246 8.288 52.2886 8.288ZM52.2886 22.376C53.2646 22.376 54.1126 22.112 54.8326 21.584C55.5686 21.04 56.1286 20.28 56.5126 19.304C56.9126 18.328 57.1126 17.168 57.1126 15.824C57.1126 14.464 56.9126 13.296 56.5126 12.32C56.1286 11.328 55.5686 10.568 54.8326 10.04C54.1126 9.496 53.2646 9.224 52.2886 9.224C51.3286 9.224 50.4886 9.496 49.7686 10.04C49.0486 10.568 48.4886 11.328 48.0886 12.32C47.6886 13.296 47.4886 14.464 47.4886 15.824C47.4886 17.168 47.6886 18.328 48.0886 19.304C48.4886 20.28 49.0486 21.04 49.7686 21.584C50.4886 22.112 51.3286 22.376 52.2886 22.376ZM70.2556 8.6C71.9676 8.6 73.4396 8.888 74.6716 9.464C75.9036 10.024 76.8476 10.848 77.5036 11.936C78.1596 13.008 78.4876 14.296 78.4876 15.8C78.4876 17.304 78.1596 18.592 77.5036 19.664C76.8476 20.736 75.9036 21.56 74.6716 22.136C73.4396 22.712 71.9676 23 70.2556 23H64.9276L64.8796 22.04C66.0956 22.04 67.0716 22.04 67.8076 22.04C68.5596 22.04 69.1036 22.04 69.4396 22.04C69.7916 22.04 69.9676 22.04 69.9676 22.04C71.4716 22.04 72.6556 21.488 73.5196 20.384C74.3836 19.28 74.8156 17.752 74.8156 15.8C74.8156 13.848 74.3836 12.32 73.5196 11.216C72.6556 10.096 71.4716 9.536 69.9676 9.536C69.9676 9.536 69.7916 9.536 69.4396 9.536C69.0876 9.536 68.5196 9.536 67.7356 9.536C66.9516 9.536 65.9196 9.536 64.6396 9.536V8.6H70.2556ZM67.2556 8.6V23H63.7996V8.6H67.2556ZM63.8716 21.464V23H62.1436V22.76C62.1436 22.76 62.1916 22.76 62.2876 22.76C62.3836 22.76 62.4396 22.76 62.4556 22.76C62.8236 22.76 63.1356 22.632 63.3916 22.376C63.6636 22.12 63.7996 21.816 63.7996 21.464H63.8716ZM63.8476 10.112H63.7996C63.7836 9.744 63.6396 9.44 63.3676 9.2C63.1116 8.96 62.7996 8.84 62.4316 8.84C62.4316 8.84 62.3836 8.84 62.2876 8.84C62.1916 8.84 62.1436 8.84 62.1436 8.84V8.6H63.8476V10.112ZM84.9034 8.6V23H81.4474V8.6H84.9034ZM90.4954 22.04L91.0714 23H84.8554V22.04H90.4954ZM92.0794 18.584L91.1434 23H86.9914L87.7354 22.04C88.4234 22.04 89.0314 21.904 89.5594 21.632C90.1034 21.344 90.5674 20.944 90.9514 20.432C91.3354 19.904 91.6314 19.288 91.8394 18.584H92.0794ZM81.4954 21.488L81.6154 23H79.8394V22.76C79.8394 22.76 79.8874 22.76 79.9834 22.76C80.0794 22.76 80.1354 22.76 80.1514 22.76C80.5034 22.76 80.7994 22.64 81.0394 22.4C81.2954 22.144 81.4314 21.84 81.4474 21.488H81.4954ZM84.8554 10.112V8.6H86.5114V8.84C86.4954 8.84 86.4394 8.84 86.3434 8.84C86.2634 8.84 86.2234 8.84 86.2234 8.84C85.8714 8.84 85.5674 8.96 85.3114 9.2C85.0554 9.44 84.9194 9.744 84.9034 10.112H84.8554ZM81.4954 10.112H81.4474C81.4314 9.744 81.2954 9.44 81.0394 9.2C80.7834 8.96 80.4794 8.84 80.1274 8.84C80.1114 8.84 80.0554 8.84 79.9594 8.84C79.8794 8.84 79.8394 8.84 79.8394 8.84V8.6H81.4954V10.112ZM97.9129 8.6V23H94.4569V8.6H97.9129ZM94.5289 21.488V23H92.7769V22.76C92.7769 22.76 92.8249 22.76 92.9209 22.76C93.0169 22.76 93.0729 22.76 93.0889 22.76C93.4569 22.76 93.7769 22.64 94.0489 22.4C94.3209 22.144 94.4569 21.84 94.4569 21.488H94.5289ZM97.8649 21.488H97.9129C97.9289 21.84 98.0649 22.144 98.3209 22.4C98.5929 22.64 98.9209 22.76 99.3049 22.76C99.3049 22.76 99.3449 22.76 99.4249 22.76C99.5209 22.76 99.5769 22.76 99.5929 22.76V23H97.8649V21.488ZM97.8649 10.112V8.6H99.5929L99.5689 8.84C99.5689 8.84 99.5289 8.84 99.4489 8.84C99.3689 8.84 99.3209 8.84 99.3049 8.84C98.9209 8.84 98.5929 8.96 98.3209 9.2C98.0649 9.44 97.9289 9.744 97.9129 10.112H97.8649ZM94.5289 10.112H94.4569C94.4569 9.744 94.3209 9.44 94.0489 9.2C93.7769 8.96 93.4489 8.84 93.0649 8.84C93.0649 8.84 93.0169 8.84 92.9209 8.84C92.8249 8.84 92.7769 8.84 92.7769 8.84V8.6H94.5289V10.112ZM102.582 8.264L116.67 20.648L116.91 23.312L102.846 10.928L102.582 8.264ZM102.678 21.536V23H100.902V22.76C100.902 22.76 100.966 22.76 101.094 22.76C101.222 22.76 101.286 22.76 101.286 22.76C101.654 22.76 101.966 22.648 102.222 22.424C102.478 22.184 102.606 21.888 102.606 21.536H102.678ZM105.894 21.536C105.91 21.888 106.046 22.184 106.302 22.424C106.558 22.648 106.862 22.76 107.214 22.76C107.214 22.76 107.278 22.76 107.406 22.76C107.55 22.76 107.622 22.76 107.622 22.76V23H105.846V21.536H105.894ZM102.582 8.264L105.894 11.864V23H102.606V11C102.606 10.184 102.566 9.528 102.486 9.032C102.406 8.52 102.366 8.264 102.366 8.264H102.582ZM116.886 8.6V20.504C116.886 21.064 116.902 21.56 116.934 21.992C116.982 22.408 117.022 22.736 117.054 22.976C117.102 23.2 117.126 23.312 117.126 23.312H116.91L113.598 19.496V8.6H116.886ZM116.814 10.064V8.6H118.614V8.84C118.614 8.84 118.542 8.84 118.398 8.84C118.27 8.84 118.206 8.84 118.206 8.84C117.854 8.84 117.542 8.96 117.27 9.2C117.014 9.424 116.886 9.712 116.886 10.064H116.814ZM113.598 10.064C113.582 9.712 113.446 9.424 113.19 9.2C112.95 8.96 112.646 8.84 112.278 8.84C112.278 8.84 112.206 8.84 112.062 8.84C111.934 8.84 111.87 8.84 111.87 8.84V8.6H113.646V10.064H113.598ZM124.982 8.6V23H121.526V8.6H124.982ZM130.598 22.04L131.15 23H124.934V22.04H130.598ZM129.782 15.392V16.352H124.934V15.392H129.782ZM130.862 8.6V9.56H124.934V8.6H130.862ZM132.134 18.584L131.222 23H127.07L127.814 22.04C128.502 22.04 129.11 21.904 129.638 21.632C130.182 21.344 130.646 20.944 131.03 20.432C131.414 19.904 131.71 19.288 131.918 18.584H132.134ZM129.782 16.304V18.416H129.542V18.224C129.542 17.696 129.374 17.256 129.038 16.904C128.718 16.552 128.278 16.368 127.718 16.352V16.304H129.782ZM129.782 13.328V15.44H127.718V15.392C128.278 15.376 128.718 15.192 129.038 14.84C129.374 14.472 129.542 14.024 129.542 13.496V13.328H129.782ZM130.862 9.512V12.056H130.622V11.84C130.622 11.136 130.43 10.584 130.046 10.184C129.678 9.784 129.142 9.576 128.438 9.56V9.512H130.862ZM130.862 8.24V8.816L128.342 8.6C128.806 8.6 129.294 8.56 129.806 8.48C130.318 8.384 130.67 8.304 130.862 8.24ZM121.574 21.488L121.694 23H119.918V22.76C119.918 22.76 119.966 22.76 120.062 22.76C120.158 22.76 120.214 22.76 120.23 22.76C120.582 22.76 120.878 22.64 121.118 22.4C121.374 22.144 121.51 21.84 121.526 21.488H121.574ZM121.574 10.112H121.526C121.51 9.744 121.374 9.44 121.118 9.2C120.878 8.96 120.582 8.84 120.23 8.84C120.214 8.84 120.158 8.84 120.062 8.84C119.966 8.84 119.918 8.84 119.918 8.84V8.6H121.694L121.574 10.112Z" fill="black"/>
</svg>
